<mxfile host="app.diagrams.net" agent="Mozilla/5.0 (Windows NT 10.0; Win64; x64) AppleWebKit/537.36 (KHTML, like Gecko) Chrome/127.0.0.0 Safari/537.36 Edg/127.0.0.0" version="24.7.7">
  <diagram id="R2lEEEUBdFMjLlhIrx00" name="Page-1">
    <mxGraphModel dx="1491" dy="2787" grid="1" gridSize="10" guides="1" tooltips="1" connect="1" arrows="1" fold="1" page="1" pageScale="1" pageWidth="850" pageHeight="1100" math="0" shadow="0" extFonts="Permanent Marker^https://fonts.googleapis.com/css?family=Permanent+Marker">
      <root>
        <mxCell id="0" />
        <mxCell id="1" parent="0" />
        <mxCell id="S61wOGUgB-DtKK6DvQTH-1" value="Supplier" style="swimlane;childLayout=stackLayout;horizontal=1;startSize=50;horizontalStack=0;rounded=1;fontSize=14;fontStyle=0;strokeWidth=2;resizeParent=0;resizeLast=1;shadow=0;dashed=0;align=center;arcSize=4;whiteSpace=wrap;html=1;" vertex="1" parent="1">
          <mxGeometry x="590" y="150" width="160" height="120" as="geometry" />
        </mxCell>
        <mxCell id="S61wOGUgB-DtKK6DvQTH-2" value="+Attribute1&#xa;+Attribute2&#xa;+Attribute3" style="align=left;strokeColor=none;fillColor=none;spacingLeft=4;fontSize=12;verticalAlign=top;resizable=0;rotatable=0;part=1;html=1;" vertex="1" parent="S61wOGUgB-DtKK6DvQTH-1">
          <mxGeometry y="50" width="160" height="70" as="geometry" />
        </mxCell>
        <mxCell id="S61wOGUgB-DtKK6DvQTH-15" value="" style="edgeStyle=orthogonalEdgeStyle;shape=connector;rounded=0;orthogonalLoop=1;jettySize=auto;html=1;strokeColor=default;align=center;verticalAlign=middle;fontFamily=Helvetica;fontSize=11;fontColor=default;labelBackgroundColor=default;endArrow=none;endFill=0;" edge="1" parent="1" source="S61wOGUgB-DtKK6DvQTH-3" target="S61wOGUgB-DtKK6DvQTH-2">
          <mxGeometry relative="1" as="geometry" />
        </mxCell>
        <mxCell id="S61wOGUgB-DtKK6DvQTH-3" value="Phone" style="ellipse;whiteSpace=wrap;html=1;align=center;" vertex="1" parent="1">
          <mxGeometry x="620" y="320" width="100" height="40" as="geometry" />
        </mxCell>
        <mxCell id="S61wOGUgB-DtKK6DvQTH-14" style="edgeStyle=orthogonalEdgeStyle;shape=connector;rounded=0;orthogonalLoop=1;jettySize=auto;html=1;exitX=0.5;exitY=0;exitDx=0;exitDy=0;entryX=0;entryY=0.75;entryDx=0;entryDy=0;strokeColor=default;align=center;verticalAlign=middle;fontFamily=Helvetica;fontSize=11;fontColor=default;labelBackgroundColor=default;endArrow=none;endFill=0;" edge="1" parent="1" source="S61wOGUgB-DtKK6DvQTH-6" target="S61wOGUgB-DtKK6DvQTH-2">
          <mxGeometry relative="1" as="geometry" />
        </mxCell>
        <mxCell id="S61wOGUgB-DtKK6DvQTH-6" value="Fax" style="ellipse;whiteSpace=wrap;html=1;align=center;" vertex="1" parent="1">
          <mxGeometry x="500" y="320" width="100" height="40" as="geometry" />
        </mxCell>
        <mxCell id="S61wOGUgB-DtKK6DvQTH-11" style="edgeStyle=orthogonalEdgeStyle;rounded=0;orthogonalLoop=1;jettySize=auto;html=1;exitX=0.5;exitY=0;exitDx=0;exitDy=0;entryX=1;entryY=0.75;entryDx=0;entryDy=0;endArrow=none;endFill=0;" edge="1" parent="1" source="S61wOGUgB-DtKK6DvQTH-9" target="S61wOGUgB-DtKK6DvQTH-2">
          <mxGeometry relative="1" as="geometry" />
        </mxCell>
        <mxCell id="S61wOGUgB-DtKK6DvQTH-9" value="Address" style="ellipse;whiteSpace=wrap;html=1;align=center;" vertex="1" parent="1">
          <mxGeometry x="760" y="320" width="100" height="40" as="geometry" />
        </mxCell>
        <mxCell id="S61wOGUgB-DtKK6DvQTH-17" value="" style="edgeStyle=orthogonalEdgeStyle;shape=connector;rounded=0;orthogonalLoop=1;jettySize=auto;html=1;strokeColor=default;align=center;verticalAlign=middle;fontFamily=Helvetica;fontSize=11;fontColor=default;labelBackgroundColor=default;endArrow=none;endFill=0;" edge="1" parent="1" source="S61wOGUgB-DtKK6DvQTH-16" target="S61wOGUgB-DtKK6DvQTH-2">
          <mxGeometry relative="1" as="geometry">
            <Array as="points">
              <mxPoint x="580" y="210" />
              <mxPoint x="580" y="210" />
            </Array>
          </mxGeometry>
        </mxCell>
        <mxCell id="S61wOGUgB-DtKK6DvQTH-16" value="SupplierCode" style="ellipse;whiteSpace=wrap;html=1;align=center;fontStyle=4;fontFamily=Helvetica;fontSize=11;fontColor=default;labelBackgroundColor=default;" vertex="1" parent="1">
          <mxGeometry x="440" y="190" width="100" height="40" as="geometry" />
        </mxCell>
        <mxCell id="S61wOGUgB-DtKK6DvQTH-19" value="" style="edgeStyle=orthogonalEdgeStyle;shape=connector;rounded=0;orthogonalLoop=1;jettySize=auto;html=1;strokeColor=default;align=center;verticalAlign=middle;fontFamily=Helvetica;fontSize=11;fontColor=default;labelBackgroundColor=default;endArrow=none;endFill=0;" edge="1" parent="1" source="S61wOGUgB-DtKK6DvQTH-18" target="S61wOGUgB-DtKK6DvQTH-2">
          <mxGeometry relative="1" as="geometry">
            <Array as="points">
              <mxPoint x="760" y="210" />
              <mxPoint x="760" y="210" />
            </Array>
          </mxGeometry>
        </mxCell>
        <mxCell id="S61wOGUgB-DtKK6DvQTH-18" value="SupplierName" style="ellipse;whiteSpace=wrap;html=1;align=center;fontFamily=Helvetica;fontSize=11;fontColor=default;labelBackgroundColor=default;" vertex="1" parent="1">
          <mxGeometry x="790" y="190" width="100" height="40" as="geometry" />
        </mxCell>
        <mxCell id="S61wOGUgB-DtKK6DvQTH-22" style="edgeStyle=orthogonalEdgeStyle;shape=connector;rounded=0;orthogonalLoop=1;jettySize=auto;html=1;exitX=0.5;exitY=1;exitDx=0;exitDy=0;entryX=0.5;entryY=0;entryDx=0;entryDy=0;strokeColor=default;align=center;verticalAlign=middle;fontFamily=Helvetica;fontSize=11;fontColor=default;labelBackgroundColor=default;endArrow=classic;endFill=1;" edge="1" parent="1" source="S61wOGUgB-DtKK6DvQTH-20" target="S61wOGUgB-DtKK6DvQTH-1">
          <mxGeometry relative="1" as="geometry" />
        </mxCell>
        <mxCell id="S61wOGUgB-DtKK6DvQTH-37" value="" style="edgeStyle=orthogonalEdgeStyle;shape=connector;rounded=0;orthogonalLoop=1;jettySize=auto;html=1;strokeColor=default;align=center;verticalAlign=middle;fontFamily=Helvetica;fontSize=11;fontColor=default;labelBackgroundColor=default;endArrow=none;endFill=0;" edge="1" parent="1" source="S61wOGUgB-DtKK6DvQTH-20" target="S61wOGUgB-DtKK6DvQTH-24">
          <mxGeometry relative="1" as="geometry">
            <Array as="points">
              <mxPoint x="670" y="20" />
              <mxPoint x="670" y="20" />
            </Array>
          </mxGeometry>
        </mxCell>
        <mxCell id="S61wOGUgB-DtKK6DvQTH-20" value="Supplies " style="shape=rhombus;perimeter=rhombusPerimeter;whiteSpace=wrap;html=1;align=center;fontFamily=Helvetica;fontSize=11;fontColor=default;labelBackgroundColor=default;" vertex="1" parent="1">
          <mxGeometry x="610" y="50" width="120" height="60" as="geometry" />
        </mxCell>
        <mxCell id="S61wOGUgB-DtKK6DvQTH-23" value="Item" style="swimlane;childLayout=stackLayout;horizontal=1;startSize=50;horizontalStack=0;rounded=1;fontSize=14;fontStyle=0;strokeWidth=2;resizeParent=0;resizeLast=1;shadow=0;dashed=0;align=center;arcSize=4;whiteSpace=wrap;html=1;" vertex="1" parent="1">
          <mxGeometry x="595" y="-110" width="160" height="120" as="geometry" />
        </mxCell>
        <mxCell id="S61wOGUgB-DtKK6DvQTH-24" value="+Attribute1&#xa;+Attribute2&#xa;+Attribute3" style="align=left;strokeColor=none;fillColor=none;spacingLeft=4;fontSize=12;verticalAlign=top;resizable=0;rotatable=0;part=1;html=1;" vertex="1" parent="S61wOGUgB-DtKK6DvQTH-23">
          <mxGeometry y="50" width="160" height="70" as="geometry" />
        </mxCell>
        <mxCell id="S61wOGUgB-DtKK6DvQTH-29" style="edgeStyle=orthogonalEdgeStyle;rounded=0;orthogonalLoop=1;jettySize=auto;html=1;exitX=0.5;exitY=0;exitDx=0;exitDy=0;entryX=1;entryY=0.75;entryDx=0;entryDy=0;endArrow=none;endFill=0;" edge="1" parent="1" source="S61wOGUgB-DtKK6DvQTH-30" target="S61wOGUgB-DtKK6DvQTH-24">
          <mxGeometry relative="1" as="geometry" />
        </mxCell>
        <mxCell id="S61wOGUgB-DtKK6DvQTH-30" value="ItemDescription" style="ellipse;whiteSpace=wrap;html=1;align=center;" vertex="1" parent="1">
          <mxGeometry x="765" y="60" width="100" height="40" as="geometry" />
        </mxCell>
        <mxCell id="S61wOGUgB-DtKK6DvQTH-31" value="" style="edgeStyle=orthogonalEdgeStyle;shape=connector;rounded=0;orthogonalLoop=1;jettySize=auto;html=1;strokeColor=default;align=center;verticalAlign=middle;fontFamily=Helvetica;fontSize=11;fontColor=default;labelBackgroundColor=default;endArrow=none;endFill=0;" edge="1" parent="1" source="S61wOGUgB-DtKK6DvQTH-32" target="S61wOGUgB-DtKK6DvQTH-24">
          <mxGeometry relative="1" as="geometry">
            <Array as="points">
              <mxPoint x="585" y="-50" />
              <mxPoint x="585" y="-50" />
            </Array>
          </mxGeometry>
        </mxCell>
        <mxCell id="S61wOGUgB-DtKK6DvQTH-32" value="ItemCode" style="ellipse;whiteSpace=wrap;html=1;align=center;fontStyle=4;fontFamily=Helvetica;fontSize=11;fontColor=default;labelBackgroundColor=default;" vertex="1" parent="1">
          <mxGeometry x="445" y="-70" width="100" height="40" as="geometry" />
        </mxCell>
        <mxCell id="S61wOGUgB-DtKK6DvQTH-33" value="" style="edgeStyle=orthogonalEdgeStyle;shape=connector;rounded=0;orthogonalLoop=1;jettySize=auto;html=1;strokeColor=default;align=center;verticalAlign=middle;fontFamily=Helvetica;fontSize=11;fontColor=default;labelBackgroundColor=default;endArrow=none;endFill=0;" edge="1" parent="1" source="S61wOGUgB-DtKK6DvQTH-34" target="S61wOGUgB-DtKK6DvQTH-24">
          <mxGeometry relative="1" as="geometry">
            <Array as="points">
              <mxPoint x="765" y="-50" />
              <mxPoint x="765" y="-50" />
            </Array>
          </mxGeometry>
        </mxCell>
        <mxCell id="S61wOGUgB-DtKK6DvQTH-34" value="ItemName" style="ellipse;whiteSpace=wrap;html=1;align=center;fontFamily=Helvetica;fontSize=11;fontColor=default;labelBackgroundColor=default;" vertex="1" parent="1">
          <mxGeometry x="795" y="-70" width="100" height="40" as="geometry" />
        </mxCell>
        <mxCell id="S61wOGUgB-DtKK6DvQTH-44" value="" style="edgeStyle=orthogonalEdgeStyle;shape=connector;rounded=0;orthogonalLoop=1;jettySize=auto;html=1;strokeColor=default;align=center;verticalAlign=middle;fontFamily=Helvetica;fontSize=11;fontColor=default;labelBackgroundColor=default;endArrow=classic;endFill=1;" edge="1" parent="1" source="S61wOGUgB-DtKK6DvQTH-38" target="S61wOGUgB-DtKK6DvQTH-43">
          <mxGeometry relative="1" as="geometry" />
        </mxCell>
        <mxCell id="S61wOGUgB-DtKK6DvQTH-38" value="Stores " style="shape=rhombus;perimeter=rhombusPerimeter;whiteSpace=wrap;html=1;align=center;fontFamily=Helvetica;fontSize=11;fontColor=default;labelBackgroundColor=default;" vertex="1" parent="1">
          <mxGeometry x="570" y="-240" width="120" height="60" as="geometry" />
        </mxCell>
        <mxCell id="S61wOGUgB-DtKK6DvQTH-39" style="edgeStyle=orthogonalEdgeStyle;shape=connector;rounded=0;orthogonalLoop=1;jettySize=auto;html=1;exitX=0.5;exitY=1;exitDx=0;exitDy=0;entryX=0.213;entryY=0.008;entryDx=0;entryDy=0;entryPerimeter=0;strokeColor=default;align=center;verticalAlign=middle;fontFamily=Helvetica;fontSize=11;fontColor=default;labelBackgroundColor=default;endArrow=classic;endFill=1;" edge="1" parent="1" source="S61wOGUgB-DtKK6DvQTH-38" target="S61wOGUgB-DtKK6DvQTH-23">
          <mxGeometry relative="1" as="geometry" />
        </mxCell>
        <mxCell id="S61wOGUgB-DtKK6DvQTH-41" style="edgeStyle=orthogonalEdgeStyle;shape=connector;rounded=0;orthogonalLoop=1;jettySize=auto;html=1;exitX=0.5;exitY=1;exitDx=0;exitDy=0;entryX=1;entryY=0;entryDx=0;entryDy=0;strokeColor=default;align=center;verticalAlign=middle;fontFamily=Helvetica;fontSize=11;fontColor=default;labelBackgroundColor=default;endArrow=none;endFill=0;" edge="1" parent="1" source="S61wOGUgB-DtKK6DvQTH-40" target="S61wOGUgB-DtKK6DvQTH-23">
          <mxGeometry relative="1" as="geometry" />
        </mxCell>
        <mxCell id="S61wOGUgB-DtKK6DvQTH-55" style="edgeStyle=orthogonalEdgeStyle;shape=connector;rounded=0;orthogonalLoop=1;jettySize=auto;html=1;exitX=1;exitY=0.5;exitDx=0;exitDy=0;strokeColor=default;align=center;verticalAlign=middle;fontFamily=Helvetica;fontSize=11;fontColor=default;labelBackgroundColor=default;endArrow=none;endFill=0;" edge="1" parent="1" source="S61wOGUgB-DtKK6DvQTH-40" target="S61wOGUgB-DtKK6DvQTH-56">
          <mxGeometry relative="1" as="geometry">
            <mxPoint x="1030" y="-210" as="targetPoint" />
          </mxGeometry>
        </mxCell>
        <mxCell id="S61wOGUgB-DtKK6DvQTH-40" value="Contains " style="shape=rhombus;perimeter=rhombusPerimeter;whiteSpace=wrap;html=1;align=center;fontFamily=Helvetica;fontSize=11;fontColor=default;labelBackgroundColor=default;" vertex="1" parent="1">
          <mxGeometry x="730" y="-240" width="120" height="60" as="geometry" />
        </mxCell>
        <mxCell id="S61wOGUgB-DtKK6DvQTH-47" value="" style="edgeStyle=orthogonalEdgeStyle;shape=connector;rounded=0;orthogonalLoop=1;jettySize=auto;html=1;strokeColor=default;align=center;verticalAlign=middle;fontFamily=Helvetica;fontSize=11;fontColor=default;labelBackgroundColor=default;endArrow=none;endFill=0;" edge="1" parent="1" source="S61wOGUgB-DtKK6DvQTH-42" target="S61wOGUgB-DtKK6DvQTH-45">
          <mxGeometry relative="1" as="geometry" />
        </mxCell>
        <mxCell id="S61wOGUgB-DtKK6DvQTH-42" value="Warehouse" style="swimlane;childLayout=stackLayout;horizontal=1;startSize=50;horizontalStack=0;rounded=1;fontSize=14;fontStyle=0;strokeWidth=2;resizeParent=0;resizeLast=1;shadow=0;dashed=0;align=center;arcSize=4;whiteSpace=wrap;html=1;fontFamily=Helvetica;fontColor=default;labelBackgroundColor=default;" vertex="1" parent="1">
          <mxGeometry x="550" y="-400" width="160" height="120" as="geometry" />
        </mxCell>
        <mxCell id="S61wOGUgB-DtKK6DvQTH-43" value="+Attribute1&#xa;+Attribute2&#xa;+Attribute3" style="align=left;strokeColor=none;fillColor=none;spacingLeft=4;fontSize=12;verticalAlign=top;resizable=0;rotatable=0;part=1;html=1;fontFamily=Helvetica;fontColor=default;labelBackgroundColor=default;" vertex="1" parent="S61wOGUgB-DtKK6DvQTH-42">
          <mxGeometry y="50" width="160" height="70" as="geometry" />
        </mxCell>
        <mxCell id="S61wOGUgB-DtKK6DvQTH-45" value="Area" style="ellipse;whiteSpace=wrap;html=1;align=center;fontFamily=Helvetica;fontSize=11;fontColor=default;labelBackgroundColor=default;" vertex="1" parent="1">
          <mxGeometry x="580" y="-490" width="100" height="40" as="geometry" />
        </mxCell>
        <mxCell id="S61wOGUgB-DtKK6DvQTH-49" style="edgeStyle=orthogonalEdgeStyle;shape=connector;rounded=0;orthogonalLoop=1;jettySize=auto;html=1;exitX=0.5;exitY=1;exitDx=0;exitDy=0;entryX=1;entryY=0.25;entryDx=0;entryDy=0;strokeColor=default;align=center;verticalAlign=middle;fontFamily=Helvetica;fontSize=11;fontColor=default;labelBackgroundColor=default;endArrow=none;endFill=0;" edge="1" parent="1" source="S61wOGUgB-DtKK6DvQTH-48" target="S61wOGUgB-DtKK6DvQTH-42">
          <mxGeometry relative="1" as="geometry" />
        </mxCell>
        <mxCell id="S61wOGUgB-DtKK6DvQTH-48" value="&lt;strong&gt;FK&lt;/strong&gt;: ItemCode" style="ellipse;whiteSpace=wrap;html=1;align=center;fontFamily=Helvetica;fontSize=11;fontColor=default;labelBackgroundColor=default;" vertex="1" parent="1">
          <mxGeometry x="700" y="-490" width="100" height="40" as="geometry" />
        </mxCell>
        <mxCell id="S61wOGUgB-DtKK6DvQTH-51" style="edgeStyle=orthogonalEdgeStyle;shape=connector;rounded=0;orthogonalLoop=1;jettySize=auto;html=1;exitX=0.5;exitY=1;exitDx=0;exitDy=0;entryX=0;entryY=0.25;entryDx=0;entryDy=0;strokeColor=default;align=center;verticalAlign=middle;fontFamily=Helvetica;fontSize=11;fontColor=default;labelBackgroundColor=default;endArrow=none;endFill=0;" edge="1" parent="1" source="S61wOGUgB-DtKK6DvQTH-50" target="S61wOGUgB-DtKK6DvQTH-42">
          <mxGeometry relative="1" as="geometry" />
        </mxCell>
        <mxCell id="S61wOGUgB-DtKK6DvQTH-50" value="WarehouseID" style="ellipse;whiteSpace=wrap;html=1;align=center;fontStyle=4;fontFamily=Helvetica;fontSize=11;fontColor=default;labelBackgroundColor=default;" vertex="1" parent="1">
          <mxGeometry x="460" y="-490" width="100" height="40" as="geometry" />
        </mxCell>
        <mxCell id="S61wOGUgB-DtKK6DvQTH-54" style="edgeStyle=orthogonalEdgeStyle;shape=connector;rounded=0;orthogonalLoop=1;jettySize=auto;html=1;exitX=0.5;exitY=0;exitDx=0;exitDy=0;entryX=0;entryY=0.75;entryDx=0;entryDy=0;strokeColor=default;align=center;verticalAlign=middle;fontFamily=Helvetica;fontSize=11;fontColor=default;labelBackgroundColor=default;endArrow=none;endFill=0;" edge="1" parent="1" source="S61wOGUgB-DtKK6DvQTH-52" target="S61wOGUgB-DtKK6DvQTH-24">
          <mxGeometry relative="1" as="geometry" />
        </mxCell>
        <mxCell id="S61wOGUgB-DtKK6DvQTH-52" value="&lt;strong&gt;FK&lt;/strong&gt;: SupplierCode&amp;nbsp;" style="ellipse;whiteSpace=wrap;html=1;align=center;fontFamily=Helvetica;fontSize=11;fontColor=default;labelBackgroundColor=default;" vertex="1" parent="1">
          <mxGeometry x="445" y="55" width="100" height="50" as="geometry" />
        </mxCell>
        <mxCell id="S61wOGUgB-DtKK6DvQTH-56" value="ExportBill" style="swimlane;childLayout=stackLayout;horizontal=1;startSize=50;horizontalStack=0;rounded=1;fontSize=14;fontStyle=0;strokeWidth=2;resizeParent=0;resizeLast=1;shadow=0;dashed=0;align=center;arcSize=4;whiteSpace=wrap;html=1;fontFamily=Helvetica;fontColor=default;labelBackgroundColor=default;" vertex="1" parent="1">
          <mxGeometry x="990" y="-270" width="160" height="120" as="geometry" />
        </mxCell>
        <mxCell id="S61wOGUgB-DtKK6DvQTH-57" value="+Attribute1&#xa;+Attribute2&#xa;+Attribute3" style="align=left;strokeColor=none;fillColor=none;spacingLeft=4;fontSize=12;verticalAlign=top;resizable=0;rotatable=0;part=1;html=1;fontFamily=Helvetica;fontColor=default;labelBackgroundColor=default;" vertex="1" parent="S61wOGUgB-DtKK6DvQTH-56">
          <mxGeometry y="50" width="160" height="70" as="geometry" />
        </mxCell>
        <mxCell id="S61wOGUgB-DtKK6DvQTH-73" style="edgeStyle=orthogonalEdgeStyle;shape=connector;rounded=0;orthogonalLoop=1;jettySize=auto;html=1;exitX=0.5;exitY=1;exitDx=0;exitDy=0;entryX=0;entryY=0.25;entryDx=0;entryDy=0;strokeColor=default;align=center;verticalAlign=middle;fontFamily=Helvetica;fontSize=11;fontColor=default;labelBackgroundColor=default;endArrow=none;endFill=0;" edge="1" parent="1" source="S61wOGUgB-DtKK6DvQTH-58" target="S61wOGUgB-DtKK6DvQTH-56">
          <mxGeometry relative="1" as="geometry" />
        </mxCell>
        <mxCell id="S61wOGUgB-DtKK6DvQTH-58" value="&lt;strong&gt;FK&lt;/strong&gt;: ItemCode" style="ellipse;whiteSpace=wrap;html=1;align=center;fontFamily=Helvetica;fontSize=11;fontColor=default;labelBackgroundColor=default;" vertex="1" parent="1">
          <mxGeometry x="895" y="-370" width="100" height="40" as="geometry" />
        </mxCell>
        <mxCell id="S61wOGUgB-DtKK6DvQTH-72" style="edgeStyle=orthogonalEdgeStyle;shape=connector;rounded=0;orthogonalLoop=1;jettySize=auto;html=1;exitX=0.5;exitY=1;exitDx=0;exitDy=0;entryX=0.5;entryY=0;entryDx=0;entryDy=0;strokeColor=default;align=center;verticalAlign=middle;fontFamily=Helvetica;fontSize=11;fontColor=default;labelBackgroundColor=default;endArrow=none;endFill=0;" edge="1" parent="1" source="S61wOGUgB-DtKK6DvQTH-59" target="S61wOGUgB-DtKK6DvQTH-56">
          <mxGeometry relative="1" as="geometry" />
        </mxCell>
        <mxCell id="S61wOGUgB-DtKK6DvQTH-59" value="&lt;strong&gt;FK&lt;/strong&gt;: StoreCode" style="ellipse;whiteSpace=wrap;html=1;align=center;fontFamily=Helvetica;fontSize=11;fontColor=default;labelBackgroundColor=default;" vertex="1" parent="1">
          <mxGeometry x="1010" y="-370" width="100" height="40" as="geometry" />
        </mxCell>
        <mxCell id="S61wOGUgB-DtKK6DvQTH-71" style="edgeStyle=orthogonalEdgeStyle;shape=connector;rounded=0;orthogonalLoop=1;jettySize=auto;html=1;exitX=0.5;exitY=1;exitDx=0;exitDy=0;entryX=1;entryY=0.25;entryDx=0;entryDy=0;strokeColor=default;align=center;verticalAlign=middle;fontFamily=Helvetica;fontSize=11;fontColor=default;labelBackgroundColor=default;endArrow=none;endFill=0;" edge="1" parent="1" source="S61wOGUgB-DtKK6DvQTH-60" target="S61wOGUgB-DtKK6DvQTH-56">
          <mxGeometry relative="1" as="geometry" />
        </mxCell>
        <mxCell id="S61wOGUgB-DtKK6DvQTH-60" value="BillID" style="ellipse;whiteSpace=wrap;html=1;align=center;fontStyle=4;fontFamily=Helvetica;fontSize=11;fontColor=default;labelBackgroundColor=default;" vertex="1" parent="1">
          <mxGeometry x="1130" y="-370" width="100" height="40" as="geometry" />
        </mxCell>
        <mxCell id="S61wOGUgB-DtKK6DvQTH-69" style="edgeStyle=orthogonalEdgeStyle;shape=connector;rounded=0;orthogonalLoop=1;jettySize=auto;html=1;exitX=1;exitY=0;exitDx=0;exitDy=0;entryX=0.25;entryY=1;entryDx=0;entryDy=0;strokeColor=default;align=center;verticalAlign=middle;fontFamily=Helvetica;fontSize=11;fontColor=default;labelBackgroundColor=default;endArrow=none;endFill=0;" edge="1" parent="1" source="S61wOGUgB-DtKK6DvQTH-61" target="S61wOGUgB-DtKK6DvQTH-57">
          <mxGeometry relative="1" as="geometry" />
        </mxCell>
        <mxCell id="S61wOGUgB-DtKK6DvQTH-61" value="UnitPrice" style="ellipse;whiteSpace=wrap;html=1;align=center;fontFamily=Helvetica;fontSize=11;fontColor=default;labelBackgroundColor=default;" vertex="1" parent="1">
          <mxGeometry x="930" y="-100" width="100" height="40" as="geometry" />
        </mxCell>
        <mxCell id="S61wOGUgB-DtKK6DvQTH-65" value="" style="edgeStyle=orthogonalEdgeStyle;shape=connector;rounded=0;orthogonalLoop=1;jettySize=auto;html=1;strokeColor=default;align=center;verticalAlign=middle;fontFamily=Helvetica;fontSize=11;fontColor=default;labelBackgroundColor=default;endArrow=none;endFill=0;" edge="1" parent="1" source="S61wOGUgB-DtKK6DvQTH-62" target="S61wOGUgB-DtKK6DvQTH-57">
          <mxGeometry relative="1" as="geometry" />
        </mxCell>
        <mxCell id="S61wOGUgB-DtKK6DvQTH-62" value="Quantity" style="ellipse;whiteSpace=wrap;html=1;align=center;fontFamily=Helvetica;fontSize=11;fontColor=default;labelBackgroundColor=default;" vertex="1" parent="1">
          <mxGeometry x="1020" y="-90" width="100" height="40" as="geometry" />
        </mxCell>
        <mxCell id="S61wOGUgB-DtKK6DvQTH-70" style="edgeStyle=orthogonalEdgeStyle;shape=connector;rounded=0;orthogonalLoop=1;jettySize=auto;html=1;exitX=0.5;exitY=0;exitDx=0;exitDy=0;entryX=1;entryY=0.75;entryDx=0;entryDy=0;strokeColor=default;align=center;verticalAlign=middle;fontFamily=Helvetica;fontSize=11;fontColor=default;labelBackgroundColor=default;endArrow=none;endFill=0;" edge="1" parent="1" source="S61wOGUgB-DtKK6DvQTH-63" target="S61wOGUgB-DtKK6DvQTH-57">
          <mxGeometry relative="1" as="geometry" />
        </mxCell>
        <mxCell id="S61wOGUgB-DtKK6DvQTH-63" value="DeliveryDate" style="ellipse;whiteSpace=wrap;html=1;align=center;fontFamily=Helvetica;fontSize=11;fontColor=default;labelBackgroundColor=default;" vertex="1" parent="1">
          <mxGeometry x="1170" y="-100" width="100" height="40" as="geometry" />
        </mxCell>
        <mxCell id="S61wOGUgB-DtKK6DvQTH-75" value="" style="edgeStyle=orthogonalEdgeStyle;shape=connector;rounded=0;orthogonalLoop=1;jettySize=auto;html=1;strokeColor=default;align=center;verticalAlign=middle;fontFamily=Helvetica;fontSize=11;fontColor=default;labelBackgroundColor=default;endArrow=none;endFill=0;" edge="1" parent="1" source="S61wOGUgB-DtKK6DvQTH-74" target="S61wOGUgB-DtKK6DvQTH-57">
          <mxGeometry relative="1" as="geometry" />
        </mxCell>
        <mxCell id="S61wOGUgB-DtKK6DvQTH-74" value="UnitPrice" style="ellipse;whiteSpace=wrap;html=1;align=center;fontFamily=Helvetica;fontSize=11;fontColor=default;labelBackgroundColor=default;" vertex="1" parent="1">
          <mxGeometry x="1210" y="-230" width="100" height="40" as="geometry" />
        </mxCell>
        <mxCell id="S61wOGUgB-DtKK6DvQTH-77" style="edgeStyle=orthogonalEdgeStyle;shape=connector;rounded=0;orthogonalLoop=1;jettySize=auto;html=1;exitX=0;exitY=0.5;exitDx=0;exitDy=0;entryX=1;entryY=0.5;entryDx=0;entryDy=0;strokeColor=default;align=center;verticalAlign=middle;fontFamily=Helvetica;fontSize=11;fontColor=default;labelBackgroundColor=default;endArrow=none;endFill=0;" edge="1" parent="1" source="S61wOGUgB-DtKK6DvQTH-76" target="S61wOGUgB-DtKK6DvQTH-24">
          <mxGeometry relative="1" as="geometry">
            <Array as="points">
              <mxPoint x="910" y="90" />
              <mxPoint x="910" y="-20" />
              <mxPoint x="755" y="-20" />
            </Array>
          </mxGeometry>
        </mxCell>
        <mxCell id="S61wOGUgB-DtKK6DvQTH-78" style="edgeStyle=orthogonalEdgeStyle;shape=connector;rounded=0;orthogonalLoop=1;jettySize=auto;html=1;exitX=0.5;exitY=0;exitDx=0;exitDy=0;entryX=0.75;entryY=1;entryDx=0;entryDy=0;strokeColor=default;align=center;verticalAlign=middle;fontFamily=Helvetica;fontSize=11;fontColor=default;labelBackgroundColor=default;endArrow=none;endFill=0;" edge="1" parent="1" source="S61wOGUgB-DtKK6DvQTH-76" target="S61wOGUgB-DtKK6DvQTH-57">
          <mxGeometry relative="1" as="geometry">
            <Array as="points">
              <mxPoint x="1130" y="60" />
              <mxPoint x="1130" y="-150" />
            </Array>
          </mxGeometry>
        </mxCell>
        <mxCell id="S61wOGUgB-DtKK6DvQTH-76" value="Contains " style="shape=rhombus;perimeter=rhombusPerimeter;whiteSpace=wrap;html=1;align=center;fontFamily=Helvetica;fontSize=11;fontColor=default;labelBackgroundColor=default;" vertex="1" parent="1">
          <mxGeometry x="980" y="60" width="120" height="60" as="geometry" />
        </mxCell>
      </root>
    </mxGraphModel>
  </diagram>
</mxfile>
